<svg width="100%" height="100%" viewBox="0 0 1386 1404" version="1.1" xmlns="http://www.w3.org/2000/svg" xmlns:xlink="http://www.w3.org/1999/xlink" xml:space="preserve" xmlns:serif="http://www.serif.com/" style="fill-rule:evenodd;clip-rule:evenodd;stroke-linecap:round;stroke-linejoin:round;stroke-miterlimit:1.5;">
    <path d="M31.046,436.162L151.151,438.01L152.075,1257.5L512.393,1260.27L618.641,1377.61L87.403,1377.61C87.403,1377.61 37.513,1391.47 31.046,1324.02C24.578,1256.58 31.046,436.162 31.046,436.162" style="stroke:black;stroke-width:1px;"/>
    <path d="M661.042,435.774C552.811,432.119 269.722,436.031 269.722,436.031L269.722,554.289L639.279,552.441C639.279,552.441 850.851,588.473 846.231,783.414C841.612,978.356 646.67,1014.39 634.66,1014.39C622.649,1014.39 390.752,1013.46 390.752,1013.46L387.057,680.862L271.57,678.091L271.57,1134.49L557.977,1140.04L798.189,1374.71L1294.32,1376.55C1294.32,1376.55 1361.76,1380.25 1361.76,1297.1C1361.76,1213.95 1359.45,128.375 1359.45,128.375C1359.45,128.375 1368.69,47.996 1280,45.224C1191.31,42.452 107.579,45.224 107.579,45.224C107.579,45.224 34.592,45.224 34.592,126.527C34.592,207.829 35.515,307.61 35.515,307.61L150.078,309.457L151.002,165.33L1241.19,164.406L1243.97,1253.21L843.837,1256.69L714.492,1119.26C714.492,1119.26 976.647,1013.59 974.337,793.014C972.028,572.435 769.272,439.43 661.042,435.774Z" style="stroke:black;stroke-width:1px;"/>
</svg>
